# xmcd
#
# Track frame offsets:
# 150
# 13169
# 32585
# 70828
# 108405
# 132579
# 156997
# 178247
# 213729
# 246066
# 302671
#
# Disc length: 4511 seconds
#
#
# Revision: 1
# Processed by: cddbd v1.5.2PL0 Copyright (c) Steve Scherf et al.
# Submitted via: FreeRIP 2.51 
#
DISCID=9e119d0b
DTITLE=John Coltrane - Mister Day - cd1
DYEAR=1951
DGENRE=Jazz
TTITLE0=We love to boogie
TTITLE1=Budo
TTITLE2=Trane's blues
TTITLE3=Tenor conclave
TTITLE4='Round about midnight
TTITLE5=Soultrane
TTITLE6=C.T.A.
TTITLE7=Monk's mood
TTITLE8=Dakar
TTITLE9=Training in
TTITLE10=I'm old fashioned
EXTD=YEAR: 1951
EXTT0=
EXTT1=
EXTT2=
EXTT3=
EXTT4=
EXTT5=
EXTT6=
EXTT7=
EXTT8=
EXTT9=
EXTT10=
PLAYORDER=
